<svg width="20" height="20" viewBox="0 0 20 20" fill="none" xmlns="http://www.w3.org/2000/svg">
<path d="M8.39953 0.366975L4.92417 4.99983H0.937491C0.419527 4.99983 0 5.55921 0 6.24984V13.7499C0 14.44 0.419527 14.9999 0.937491 14.9999H4.92417L8.39953 19.6328C8.98663 20.4156 9.9999 19.8656 9.9999 18.7489V1.25084C9.9999 0.133118 8.98585 -0.414804 8.39953 0.366975ZM18.0326 9.99988L19.8154 7.62277C20.0615 7.29465 20.0615 6.76235 19.8154 6.43422L18.924 5.24567C18.6779 4.91754 18.2787 4.91754 18.0326 5.24567L16.2498 7.62277L14.467 5.24567C14.221 4.91754 13.8217 4.91754 13.5756 5.24567L12.6843 6.43422C12.4382 6.76235 12.4382 7.29465 12.6843 7.62277L14.467 9.99988L12.6846 12.3765C12.4386 12.7046 12.4386 13.2369 12.6846 13.565L13.576 14.7536C13.8221 15.0817 14.2213 15.0817 14.4674 14.7536L16.2498 12.377L18.0326 14.7541C18.2787 15.0822 18.6779 15.0822 18.924 14.7541L19.8154 13.5655C20.0615 13.2374 20.0615 12.7051 19.8154 12.377L18.0326 9.99988Z" fill="white"/>
</svg>
