<svg width="22" height="15" viewBox="0 0 22 15" fill="none" xmlns="http://www.w3.org/2000/svg">
<path d="M21.7859 13.42L19.8952 12.1749C20.4246 12.1339 20.899 11.7736 20.899 11.2638V3.73449C20.899 2.98742 19.8987 2.55089 19.1665 2.97863L15.399 5.19347V9.213L14.299 8.48937V3.27453C14.299 2.50109 13.5634 1.87414 12.6559 1.87414H4.25805L1.56305 0.0987466C1.32243 -0.0594565 0.978675 -0.0243003 0.789613 0.180778L0.115863 0.919059C-0.0697623 1.12414 -0.0285123 1.41711 0.212113 1.57531L1.4668 2.40148L14.299 10.8566L20.4349 14.8995C20.6756 15.0577 21.0193 15.0226 21.2084 14.8175L21.8821 14.0763C22.0712 13.8741 22.0265 13.5782 21.7859 13.42V13.42ZM1.09899 11.7237C1.09899 12.4972 1.83461 13.1241 2.74211 13.1241H12.6559C13.0409 13.1241 13.3915 13.0069 13.6734 12.8165L1.09899 4.53136V11.7237Z" fill="white"/>
</svg>
